inDegrees=yes
name=ik_OwnShooting_orientations2
DataType=double
version=3
OpenSimVersion=4.3-2021-08-27-4bc7ad9
endheader
time	pelvis_tilt	pelvis_list	pelvis_rotation	pelvis_tx	pelvis_ty	pelvis_tz	hip_flexion_r	hip_adduction_r	hip_rotation_r	knee_angle_r	knee_angle_r_beta	ankle_angle_r	subtalar_angle_r	mtp_angle_r	hip_flexion_l	hip_adduction_l	hip_rotation_l	knee_angle_l	knee_angle_l_beta	ankle_angle_l	subtalar_angle_l	mtp_angle_l	lumbar_extension	lumbar_bending	lumbar_rotation	arm_flex_r	arm_add_r	arm_rot_r	elbow_flex_r	pro_sup_r	wrist_flex_r	wrist_dev_r	arm_flex_l	arm_add_l	arm_rot_l	elbow_flex_l	pro_sup_l	wrist_flex_l	wrist_dev_l
7.5	8.174709648378832	8.264534008815481	62.97669014319499	0	0.9399999999999999	0	42.03580688110421	-10.41835169663008	0	59.4017883797686	1.03675678879987	-5.145522269500056	0	0	42.03580688110421	-10.41835169663008	0	59.4017883797686	1.03675678879987	-5.145522269500056	0	0	-8.034962569797274	1.384347231040365	-0.4613758777302273	53.38059598728739	0.3484982126210085	-22.53676589493865	76.79879416656672	44.98579057448772	0	0	0	-10.36007260134153	0	76.79879416656672	44.98579057448772	0	0
7.51	8.182319716918771	8.276133304150399	62.96840703839322	0	0.9399999999999999	0	42.03622040449451	-10.41814931339754	0	59.40185408848365	1.036757935633295	-5.145430571534235	0	0	42.03622040449451	-10.41814931339754	0	59.40185408848365	1.036757935633295	-5.145430571534235	0	0	-8.054389052111308	1.378401926066498	-0.4655521016980682	53.64663398955056	0.223413907964032	-22.52807271846001	76.7985434922175	44.98579601789763	0	0	0	-10.36040513877938	0	76.7985434922175	44.98579601789763	0	0
7.52	8.193660949462565	8.290097382803792	62.97481701157269	0	0.9399999999999999	0	42.03662650130301	-10.41795065480083	0	59.40191862758255	1.036759062053067	-5.145340575004163	0	0	42.03662650130301	-10.41795065480083	0	59.40191862758255	1.036759062053067	-5.145340575004163	0	0	-8.06162194320757	1.386306905100573	-0.4720957552826243	53.88375603068966	0.0464101270702143	-22.49090561073908	76.79829731963986	44.98580136173035	0	0	0	-10.36073175586512	0	76.79829731963986	44.98580136173035	0	0
7.53	8.203313417460175	8.294872748553171	62.96646660739696	0	0.9399999999999999	0	42.03701282310222	-10.41776203390072	0	59.40198009081401	1.036760134788825	-5.145255169905403	0	0	42.03701282310222	-10.41776203390072	0	59.40198009081401	1.036760134788825	-5.145255169905403	0	0	-8.069670342974632	1.390783218426093	-0.4685782720762579	54.11243005953158	-0.1195041813838514	-22.48333406080296	76.7980631338702	44.98580643766654	0	0	0	-10.36104272741523	0	76.7980631338702	44.98580643766654	0	0
7.54	8.204550177295763	8.29553511979659	62.96582444172666	0	0.9399999999999999	0	42.03736102186452	-10.41759215870799	0	59.40203550861393	1.036761102011898	-5.145178270716336	0	0	42.03736102186452	-10.41759215870799	0	59.40203550861393	1.036761102011898	-5.145178270716336	0	0	-8.05968517066732	1.389111531477189	-0.4708033145635325	54.3848464245542	-0.3123294841521635	-22.4668610365235	76.79785205781053	44.98581100996815	0	0	0	-10.3613230956429	0	76.79785205781053	44.98581100996815	0	0
7.55	8.217386410578376	8.313479286418797	62.96061637116103	0	0.9399999999999999	0	42.03777552770563	-10.41738960568539	0	59.40210139493777	1.03676225194518	-5.145086550007337	0	0	42.03777552770563	-10.41738960568539	0	59.40210139493777	1.03676225194518	-5.145086550007337	0	0	-8.075804033975144	1.402702207717737	-0.4598327917128335	54.64922930318285	-0.4836469243815539	-22.4584586812842	76.79760078741627	44.98581646022487	0	0	0	-10.36165655864718	0	76.79760078741627	44.98581646022487	0	0
7.56	8.221578629281645	8.320306589441085	62.9581721673087	0	0.9399999999999999	0	42.03816924916071	-10.41719737645758	0	59.40216399695536	1.036763344556506	-5.144999529449559	0	0	42.03816924916071	-10.41719737645758	0	59.40216399695536	1.036763344556506	-5.144999529449559	0	0	-8.090070713899284	1.40040926534539	-0.4698734841476812	54.92247958198058	-0.6310592749180188	-22.46444705451306	76.79736211610772	44.98582163381525	0	-5.38806921148701e-36	0	-10.36197338793471	0	76.79736211610772	44.98582163381525	0	-5.38806921148701e-36
7.57	8.232361687729151	8.334150002550571	62.9617433316669	0	0.9399999999999999	0	42.03856579660204	-10.41700364316742	0	59.40222701137381	1.036764444365584	-5.144911819455442	0	0	42.03856579660204	-10.41700364316742	0	59.40222701137381	1.036764444365584	-5.144911819455442	0	0	-8.093243166476942	1.407035223229741	-0.4717604537486405	55.20157481999915	-0.7838850373540845	-22.47754959531377	76.79712173194424	44.98582684734986	0	0	0	-10.36229236934029	0	76.79712173194424	44.98582684734986	0	0
7.58	8.23451284063303	8.340245445388685	62.96625073377282	0	0.9399999999999999	0	42.0389374438638	-10.41682254105981	0	59.40228616122916	1.036765476725312	-5.144829881672815	0	0	42.0389374438638	-10.41682254105981	0	59.40228616122916	1.036765476725312	-5.144829881672815	0	0	-8.107527803251786	1.416948646197931	-0.4753342789911639	55.47888256362155	-0.9646178219166556	-22.52570762318535	76.79689644124656	44.98583172358935	0	0	0	-10.36259167144475	0	76.79689644124656	44.98583172358935	0	0
7.59	8.237123404510138	8.345561975332755	62.95436927576532	0	0.9399999999999999	0	42.03924100199171	-10.41667471421821	0	59.4023344895483	1.036766320213603	-5.144763011716332	0	0	42.03924100199171	-10.41667471421821	0	59.4023344895483	1.036766320213603	-5.144763011716332	0	0	-8.099072062644268	1.413209343688266	-0.4818394469176394	55.74821728179933	-1.09407062639349	-22.52292916081479	76.7967124256667	44.98583570446808	0	0	0	-10.36283620302642	0	76.7967124256667	44.98583570446808	0	0
7.6	8.24452910895744	8.360823130353088	62.94359452513475	0	0.9399999999999999	0	42.03958938103	-10.41650503318642	0	59.40238994103115	1.036767288024554	-5.144686256188082	0	0	42.03958938103	-10.41650503318642	0	59.40238994103115	1.036767288024554	-5.144686256188082	0	0	-8.118317128247298	1.417855759726438	-0.4999636359378047	56.03174126265557	-1.214808916750348	-22.48213839842177	76.7965012399053	44.98584027380697	0	0	0	-10.36311680387729	0	76.7965012399053	44.98584027380697	0	0
7.61	8.25631335297523	8.364399413751043	62.94880171354377	0	0.9399999999999999	0	42.04000382423607	-10.41630302252717	0	59.40245585721518	1.036768438478995	-5.14459486786258	0	0	42.04000382423607	-10.41630302252717	0	59.40245585721518	1.036768438478995	-5.14459486786258	0	0	-8.140255156890003	1.419866726230799	-0.4880275089951273	56.30939793752665	-1.379525355362605	-22.48680052675474	76.79625000668463	44.98584571316472	0	0	0	-10.36345044558156	0	76.79625000668463	44.98584571316472	0	0
7.62	8.260321335250726	8.370579269789173	62.94641609364702	0	0.9399999999999999	0	42.04033938327295	-10.41613965072485	0	59.40250926197172	1.036769370567833	-5.144520982470604	0	0	42.04033938327295	-10.41613965072485	0	59.40250926197172	1.036769370567833	-5.144520982470604	0	0	-8.13781067415224	1.416362306024858	-0.4928418434455298	56.53160303596634	-1.492729800993061	-22.49506261720166	76.79604659227208	44.98585011322313	0	0	0	-10.3637207211641	0	76.79604659227208	44.98585011322313	0	0
7.63	8.255447780331966	8.376629779480714	62.9515483651827	0	0.9399999999999999	0	42.04074614914804	-10.41594130039099	0	59.40257391242981	1.03677049893119	-5.144431253503873	0	0	42.04074614914804	-10.41594130039099	0	59.40257391242981	1.03677049893119	-5.144431253503873	0	0	-8.145154887640786	1.410809306897325	-0.4838146097092259	56.82397797769111	-1.633128154398759	-22.48399517797308	76.79580001322132	44.98585545394164	0	0	0	-10.36404804720752	0	76.79580001322132	44.98585545394164	0	0
7.64	8.251432952125107	8.379218999972503	62.9498594646285	0	0.9399999999999999	0	42.04113685412288	-10.41575095989362	0	59.40263603597314	1.036771583191564	-5.144345172762971	0	0	42.04113685412288	-10.41575095989362	0	59.40263603597314	1.036771583191564	-5.144345172762971	0	0	-8.145500362107423	1.406642099345578	-0.4742114749736904	57.10179435829826	-1.780581028368963	-22.49510984511907	76.79556316989523	44.98586058011931	0	0	0	-10.36436255792304	0	76.79556316989523	44.98586058011931	0	0
7.65	8.258875796770525	8.389955144231623	62.93613690226874	0	0.9399999999999999	0	42.04153731270627	-10.41555582495063	0	59.40269969008791	1.036772694165449	-5.144256924280061	0	0	42.04153731270627	-10.41555582495063	0	59.40269969008791	1.036772694165449	-5.144256924280061	0	0	-8.160005529013299	1.401402579288743	-0.4532166300140215	57.41483087233963	-1.91603101313422	-22.50191434213607	76.7953204140772	44.98586583533526	0	0	0	-10.36468485967924	0	76.7953204140772	44.98586583533526	0	0
7.66	8.261053297037707	8.382421356936092	62.92827986086539	0	0.9399999999999999	0	42.04186119111255	-10.41539848217934	0	59.40275126953281	1.036773594396589	-5.144185820258261	0	0	42.04186119111255	-10.41539848217934	0	59.40275126953281	1.036773594396589	-5.144185820258261	0	0	-8.157067359830535	1.394376217350634	-0.4507218927333745	57.72878638698639	-2.053989680659139	-22.54330056718813	76.79512407987542	44.98587007539683	0	0	0	-10.36494589599094	0	76.79512407987542	44.98587007539683	0	0
7.67	8.261934483824215	8.375298474096914	62.92493193427187	0	0.9399999999999999	0	42.0421689595975	-10.41524896293037	0	59.40280027520102	1.036774449706851	-5.144118254846695	0	0	42.0421689595975	-10.41524896293037	0	59.40280027520102	1.036774449706851	-5.144118254846695	0	0	-8.143819968611787	1.399425265422243	-0.4571614506754781	58.04719781763637	-2.19168857515074	-22.59008599153949	76.79493751148416	44.98587410471572	0	0	0	-10.36519392695058	0	76.79493751148416	44.98587410471572	0	0
7.68	8.256627134619407	8.373929355434818	62.92199859512555	0	0.9399999999999999	0	42.04247737504637	-10.41509917495897	0	59.40284938701516	1.03677530686971	-5.144050575943917	0	0	42.04247737504637	-10.41509917495897	0	59.40284938701516	1.03677530686971	-5.144050575943917	0	0	-8.131835963320446	1.395382700776281	-0.4574516237688623	58.3641353846437	-2.335492486934304	-22.62619596424159	76.79475055083313	44.98587814161166	0	0	0	-10.36544249921892	0	76.79475055083313	44.98587814161166	0	0
7.69	8.259161732686835	8.380783763996712	62.91931327121395	0	0.9399999999999999	0	42.04282778971454	-10.41492890019278	0	59.40290515893977	1.036776280273424	-5.143973634855405	0	0	42.04282778971454	-10.41492890019278	0	59.40290515893977	1.036776280273424	-5.143973634855405	0	0	-8.136985796732064	1.398644114571827	-0.4484966602912785	58.67134131347741	-2.488250511547539	-22.67086628003205	76.79453813053961	44.98588273027338	0	0	0	-10.36572483000853	0	76.79453813053961	44.98588273027338	0	0
7.7	8.253629149840144	8.37821463516168	62.92332311952933	0	0.9399999999999999	0	42.04317880695474	-10.41475847772558	0	59.40296104675267	1.036777255699771	-5.143896647598136	0	0	42.04317880695474	-10.41475847772558	0	59.40296104675267	1.036777255699771	-5.143896647598136	0	0	-8.15207863157802	1.387273459922454	-0.4465448495978284	59.02543032725371	-2.630656092258099	-22.66514788372251	76.79432534473479	44.98588732385139	0	0	0	-10.36600773112607	0	76.79432534473479	44.98588732385139	0	0
7.71	8.24846343558489	8.37876977665468	62.92865872551828	0	0.9399999999999999	0	42.04349733172197	-10.4146039545412	0	59.40301178220842	1.036778141200522	-5.143826858693026	0	0	42.04349733172197	-10.4146039545412	0	59.40301178220842	1.036778141200522	-5.143826858693026	0	0	-8.156057751763127	1.382859224503905	-0.4598914737560404	59.36161253180502	-2.77920062207642	-22.71555261022532	76.79413225556593	44.98589148962514	0	0	0	-10.36626453101502	0	76.79413225556593	44.98589148962514	0	0
